<?xml version="1.0" encoding="utf-8"?>
<!-- Generator: Adobe Illustrator 23.0.0, SVG Export Plug-In . SVG Version: 6.00 Build 0)  -->
<svg version="1.1" id="Badges" xmlns="http://www.w3.org/2000/svg" xmlns:xlink="http://www.w3.org/1999/xlink" x="0px" y="0px"
	 viewBox="0 0 128 40" style="enable-background:new 0 0 128 40;" xml:space="preserve">
<style type="text/css">
	.st0{fill-rule:evenodd;clip-rule:evenodd;fill:url(#SVGID_1_);}
	.st1{fill-rule:evenodd;clip-rule:evenodd;fill:url(#SVGID_2_);}
	.st2{fill-rule:evenodd;clip-rule:evenodd;fill:url(#SVGID_3_);}
	.st3{fill-rule:evenodd;clip-rule:evenodd;fill:url(#SVGID_4_);}
	.st4{fill-rule:evenodd;clip-rule:evenodd;fill:#FFFFFF;}
	.st5{fill:#FFFFFF;}
</style>
<path d="M124,40H4c-2.2,0-4-1.8-4-4V4c0-2.2,1.8-4,4-4h120c2.2,0,4,1.8,4,4v32C128,38.2,126.2,40,124,40z"/>
<linearGradient id="SVGID_1_" gradientUnits="userSpaceOnUse" x1="16.2579" y1="806.4659" x2="21.8561" y2="829.4568" gradientTransform="matrix(1 0 0 1 0 -799.89)">
	<stop  offset="0" style="stop-color:#006884"/>
	<stop  offset="1" style="stop-color:#8AD1D0"/>
</linearGradient>
<path class="st0" d="M9.8,19.6V9.1c0-0.6,0.5-1.1,1-1.1s0.7,0.1,1,0.3l19.3,10.6c0.4,0.2,0.6,0.5,0.6,0.8s-0.2,0.6-0.6,0.8
	L11.8,31.1c-0.2,0.1-0.5,0.3-1,0.3s-1-0.5-1-1.1V19.6z"/>
<linearGradient id="SVGID_2_" gradientUnits="userSpaceOnUse" x1="9.4263" y1="809.7604" x2="24.6823" y2="818.0079" gradientTransform="matrix(1 0 0 1 0 -799.89)">
	<stop  offset="0" style="stop-color:#24BBB6"/>
	<stop  offset="1" style="stop-color:#DBE692"/>
</linearGradient>
<path class="st1" d="M22.3,19.7L10.6,8c0.1,0,0.1,0,0.2,0c0.5,0,0.7,0.1,1,0.3L26,16.1L22.3,19.7z"/>
<linearGradient id="SVGID_3_" gradientUnits="userSpaceOnUse" x1="27" y1="823.5101" x2="27" y2="815.5617" gradientTransform="matrix(1 0 0 1 0 -799.89)">
	<stop  offset="0" style="stop-color:#FCC072"/>
	<stop  offset="1" style="stop-color:#F58A5B"/>
</linearGradient>
<path class="st2" d="M25.9,23.2l-3.6-3.6l3.7-3.7l5.1,2.8c0.4,0.2,0.6,0.5,0.6,0.8s-0.2,0.6-0.6,0.8L25.9,23.2z"/>
<linearGradient id="SVGID_4_" gradientUnits="userSpaceOnUse" x1="12.3651" y1="833.13" x2="24.4168" y2="820.8648" gradientTransform="matrix(1 0 0 1 0 -799.89)">
	<stop  offset="0" style="stop-color:#712B8F"/>
	<stop  offset="1" style="stop-color:#EA1D27"/>
</linearGradient>
<path class="st3" d="M10.7,31.2L10.7,31.2l11.6-11.6l3.6,3.6l-14.1,7.7C11.5,31.1,11.3,31.2,10.7,31.2
	C10.8,31.2,10.8,31.2,10.7,31.2z"/>
<path class="st4" d="M71.1,33.9c-0.5-0.4-0.9-1.1-1.1-1.5l1.6-0.7c0.1,0.2,0.3,0.5,0.5,0.8c0.4,0.4,1,0.8,1.6,0.8s1.3-0.3,1.7-0.8
	c0.3-0.5,0.5-1,0.5-1.7v-0.6c-1.2,1.5-3.7,1.3-5.1-0.3c-1.5-1.6-1.5-4.3,0-5.9c1.5-1.5,3.7-1.7,5-0.3l0,0V23h1.7v7.5
	c0,1.9-0.7,3-1.6,3.7c-0.6,0.5-1.5,0.7-2.3,0.7C72.7,34.8,71.8,34.5,71.1,33.9L71.1,33.9z M113,34.3L113,34.3l1.7-4l-3-6.9h1.7
	l2.1,4.9l2.1-4.9h1.7l-4.6,10.9H113L113,34.3z M104.9,30.5L104.9,30.5c-0.5-0.5-0.7-1.2-0.7-1.9c0-0.6,0.2-1.2,0.6-1.6
	c0.7-0.7,1.7-1,2.8-1c0.7,0,1.3,0.1,1.8,0.4c0-1.2-1-1.7-1.8-1.7c-0.7,0-1.4,0.4-1.7,1.1l-1.5-0.6c0.3-0.7,1.1-2,3.1-2
	c1,0,2,0.3,2.6,1s0.8,1.5,0.8,2.6V31h-1.7v-0.7c-0.2,0.3-0.6,0.5-0.9,0.7c-0.4,0.2-0.9,0.3-1.4,0.3C106.3,31.2,105.4,31,104.9,30.5
	L104.9,30.5z M51.6,26.9L51.6,26.9c0-2,1.5-4.2,4.2-4.2c2.6,0,4.2,2.2,4.2,4.2s-1.5,4.2-4.2,4.2C53.1,31.1,51.6,28.9,51.6,26.9
	L51.6,26.9z M60.6,26.9L60.6,26.9c0-2,1.5-4.2,4.2-4.2c2.6,0,4.2,2.2,4.2,4.2s-1.5,4.2-4.2,4.2C62.2,31.1,60.6,28.9,60.6,26.9
	L60.6,26.9z M40.3,29.1L40.3,29.1c-2.5-2.5-2.4-6.6,0.1-9.2c1.3-1.3,2.9-1.9,4.6-1.9c1.6,0,3.2,0.6,4.4,1.8l-1.2,1.3
	c-1.8-1.8-4.7-1.7-6.4,0.1c-1.8,1.9-1.8,4.8,0,6.7s4.8,2,6.6,0.1c0.6-0.6,0.8-1.4,0.9-2.2h-4.2V24H51c0.1,0.4,0.1,0.9,0.1,1.4
	c0,1.5-0.6,3-1.6,4c-1.1,1.1-2.7,1.7-4.3,1.7C43.4,31,41.6,30.4,40.3,29.1L40.3,29.1z M82.6,29.8L82.6,29.8c-1.5-1.6-1.5-4.3,0-6
	c1.5-1.6,4-1.6,5.4,0c0.5,0.5,0.8,1.2,1.1,1.9L83.6,28c0.3,0.7,1,1.3,2,1.3c0.9,0,1.5-0.3,2.1-1.2l1.5,1l0,0
	c-0.2,0.2-0.4,0.4-0.5,0.6C87,31.4,84.1,31.4,82.6,29.8L82.6,29.8z M93,31L93,31V19.9h3.6c2.1,0,3.8,1.5,3.8,3.3s-1.5,3.3-3.4,3.3
	h-2.2v4.4L93,31L93,31z M101.4,31L101.4,31V19.9h1.7V31H101.4L101.4,31z M78.8,30.8L78.8,30.8V18.4h1.8v12.4H78.8L78.8,30.8z
	 M109.3,27.7L109.3,27.7c-0.4-0.3-1-0.4-1.6-0.4c-1.2,0-1.9,0.6-1.9,1.3s0.7,1.1,1.4,1.1C108.2,29.7,109.3,28.9,109.3,27.7
	L109.3,27.7z M58.1,26.9L58.1,26.9c0-1.2-0.8-2.5-2.3-2.5s-2.3,1.3-2.3,2.5s0.8,2.5,2.3,2.5C57.2,29.4,58.1,28.1,58.1,26.9
	L58.1,26.9z M67.1,26.9L67.1,26.9c0-1.2-0.8-2.5-2.3-2.5s-2.3,1.3-2.3,2.5s0.8,2.5,2.3,2.5S67.1,28.1,67.1,26.9L67.1,26.9z M76,27.6
	L76,27.6c0-0.1,0-0.2,0.1-0.3l0,0c0-0.1,0-0.3,0-0.4s0-0.3,0-0.4v-0.1c0-0.1-0.1-0.3-0.1-0.4c-0.3-1-1.2-1.7-2.1-1.7
	c-1.2,0-2.2,1.2-2.2,2.5c0,1.4,1,2.5,2.3,2.5C74.8,29.4,75.6,28.7,76,27.6L76,27.6z M83.3,26.7L83.3,26.7l3.7-1.6
	c-0.4-0.7-1-0.9-1.5-0.9C84,24.3,83.1,25.9,83.3,26.7L83.3,26.7z M98.6,23.3L98.6,23.3c0-1-0.8-1.7-1.9-1.7h-2v3.5h2.1
	C97.8,25.1,98.6,24.3,98.6,23.3z"/>
<polygon class="st4" points="114.3,32.3 114.3,32.3 114.2,32.3 114.2,32.3 114.2,32.2 114.2,32.2 114.3,32.2 114.3,32.2 114.2,32.2 
	114.2,32.2 114.2,32.3 114.2,32.3 "/>
<path class="st4" d="M114.3,32.3L114.3,32.3C114.3,32.2,114.3,32.2,114.3,32.3L114.3,32.3C114.3,32.2,114.3,32.2,114.3,32.3
	L114.3,32.3L114.3,32.3L114.3,32.3L114.3,32.3L114.3,32.3L114.3,32.3L114.3,32.3L114.3,32.3z M114.3,32.2L114.3,32.2L114.3,32.2
	L114.3,32.2L114.3,32.2L114.3,32.2L114.3,32.2L114.3,32.2z"/>
<polygon class="st4" points="114.3,32.3 114.3,32.3 114.3,32.2 114.3,32.2 114.3,32.2 114.3,32.2 114.3,32.2 114.3,32.2 114.3,32.2 
	114.3,32.2 "/>
<path class="st4" d="M114.3,32.3L114.3,32.3L114.3,32.3L114.3,32.3L114.3,32.3L114.3,32.3L114.3,32.3L114.3,32.3L114.3,32.3
	L114.3,32.3z M114.3,32.2L114.3,32.2L114.3,32.2L114.3,32.2L114.3,32.2L114.3,32.2L114.3,32.2z"/>
<polygon class="st4" points="114.3,32.2 114.3,32.2 114.3,32.2 114.3,32.2 114.3,32.3 114.3,32.3 "/>
<polygon class="st4" points="114.3,32.3 114.3,32.3 114.3,32.2 114.3,32.2 114.3,32.2 114.3,32.2 114.3,32.2 114.3,32.2 114.3,32.2 
	114.3,32.2 "/>
<path class="st4" d="M114.3,32.3L114.3,32.3C114.3,32.2,114.3,32.2,114.3,32.3L114.3,32.3L114.3,32.3L114.3,32.3L114.3,32.3
	L114.3,32.3z M114.3,32.3L114.3,32.3L114.3,32.3L114.3,32.3L114.3,32.3L114.3,32.3C114.3,32.2,114.3,32.2,114.3,32.3L114.3,32.3z"/>
<path class="st4" d="M114.4,32.3L114.4,32.3C114.4,32.2,114.4,32.2,114.4,32.3C114.4,32.2,114.4,32.2,114.4,32.3L114.4,32.3
	C114.4,32.2,114.4,32.2,114.4,32.3L114.4,32.3L114.4,32.3L114.4,32.3L114.4,32.3L114.4,32.3z M114.4,32.2L114.4,32.2L114.4,32.2
	L114.4,32.2L114.4,32.2L114.4,32.2L114.4,32.2L114.4,32.2L114.4,32.2z M114.4,32.3L114.4,32.3L114.4,32.3L114.4,32.3L114.4,32.3
	L114.4,32.3C114.4,32.2,114.4,32.2,114.4,32.3L114.4,32.3z"/>
<polygon class="st4" points="114.4,32.2 114.4,32.2 114.4,32.2 114.4,32.2 114.4,32.2 114.4,32.2 114.4,32.2 114.4,32.2 114.4,32.3 
	114.4,32.3 "/>
<polygon class="st4" points="114.4,32.3 114.4,32.3 114.4,32.2 114.4,32.2 "/>
<path class="st4" d="M114.4,32.3L114.4,32.3C114.4,32.2,114.4,32.2,114.4,32.3C114.4,32.2,114.4,32.2,114.4,32.3L114.4,32.3
	L114.4,32.3L114.4,32.3L114.4,32.3z M114.4,32.2L114.4,32.2C114.4,32.3,114.4,32.3,114.4,32.2C114.4,32.3,114.4,32.3,114.4,32.2
	L114.4,32.2L114.4,32.2L114.4,32.2L114.4,32.2z"/>
<path class="st4" d="M114.4,32.3L114.4,32.3L114.4,32.3L114.4,32.3L114.4,32.3L114.4,32.3L114.4,32.3L114.4,32.3L114.4,32.3
	C114.4,32.2,114.4,32.2,114.4,32.3C114.4,32.2,114.4,32.2,114.4,32.3L114.4,32.3C114.4,32.2,114.4,32.2,114.4,32.3
	C114.4,32.2,114.4,32.2,114.4,32.3L114.4,32.3L114.4,32.3L114.4,32.3L114.4,32.3z"/>
<path class="st4" d="M114.5,32.3L114.5,32.3C114.5,32.2,114.5,32.2,114.5,32.3C114.4,32.2,114.4,32.2,114.5,32.3L114.5,32.3
	C114.4,32.3,114.4,32.3,114.5,32.3L114.5,32.3L114.5,32.3z M114.5,32.2L114.5,32.2C114.5,32.3,114.5,32.3,114.5,32.2
	C114.5,32.3,114.4,32.3,114.5,32.2L114.5,32.2C114.4,32.2,114.5,32.2,114.5,32.2L114.5,32.2L114.5,32.2z"/>
<polygon class="st4" points="114.5,32.3 114.5,32.2 114.5,32.2 114.5,32.2 114.5,32.2 114.5,32.2 114.5,32.3 114.5,32.3 114.5,32.2 
	114.5,32.2 114.5,32.3 114.5,32.3 114.5,32.2 114.5,32.2 "/>
<path class="st4" d="M114.5,32.3L114.5,32.3L114.5,32.3L114.5,32.3L114.5,32.3L114.5,32.3L114.5,32.3L114.5,32.3L114.5,32.3
	L114.5,32.3z M114.5,32.2L114.5,32.2L114.5,32.2L114.5,32.2L114.5,32.2L114.5,32.2L114.5,32.2z"/>
<path class="st4" d="M114.5,32.3C114.5,32.2,114.5,32.2,114.5,32.3C114.5,32.2,114.5,32.2,114.5,32.3
	C114.5,32.2,114.5,32.2,114.5,32.3C114.5,32.2,114.5,32.2,114.5,32.3L114.5,32.3C114.5,32.2,114.5,32.2,114.5,32.3
	C114.5,32.2,114.5,32.2,114.5,32.3C114.5,32.2,114.5,32.2,114.5,32.3C114.5,32.2,114.5,32.2,114.5,32.3L114.5,32.3L114.5,32.3
	L114.5,32.3L114.5,32.3L114.5,32.3z"/>
<polygon class="st4" points="114.6,32.2 114.5,32.2 114.5,32.2 114.6,32.2 114.6,32.3 114.6,32.3 "/>
<polygon class="st4" points="114.6,32.3 114.6,32.3 114.6,32.2 114.6,32.2 114.6,32.2 114.6,32.2 114.6,32.2 114.6,32.2 114.6,32.2 
	114.6,32.2 "/>
<path class="st4" d="M114.6,32.3L114.6,32.3C114.6,32.2,114.6,32.2,114.6,32.3L114.6,32.3C114.6,32.2,114.6,32.2,114.6,32.3
	L114.6,32.3L114.6,32.3L114.6,32.3L114.6,32.3L114.6,32.3L114.6,32.3L114.6,32.3L114.6,32.3z M114.6,32.2L114.6,32.2L114.6,32.2
	L114.6,32.2L114.6,32.2L114.6,32.2L114.6,32.2L114.6,32.2z"/>
<g>
	<path class="st5" d="M40,9.2h-1.5V8.4h3.9v0.8h-1.5v4.7H40V9.2z"/>
	<path class="st5" d="M44.3,8.4h1l2.1,5.5h-0.9l-0.5-1.4h-2.2l-0.5,1.4h-0.9L44.3,8.4z M44.4,7.6c0.3-0.1,0.4-0.2,0.4-0.4
		c0-0.1,0-0.1-0.1-0.2c-0.1,0-0.1-0.1-0.2-0.1c-0.1,0-0.3,0-0.4,0.1l-0.2-0.5c0.2-0.1,0.4-0.1,0.7-0.1c0.3,0,0.5,0.1,0.6,0.2
		s0.2,0.3,0.2,0.5c0,0.2-0.1,0.4-0.2,0.6C45,7.9,44.8,8,44.5,8.1L44.4,7.6z M45.6,11.7L45,10l-0.2-0.6h0L44.5,10l-0.6,1.7H45.6z"/>
	<path class="st5" d="M48,8.4h0.8v5.5H48V8.4z"/>
	<path class="st5" d="M51.9,8.4h1l2.5,4h0l0-1.1v-3h0.8v5.5h-0.9l-2.6-4.2h0l0,1.1v3.2h-0.8V8.4z"/>
	<path class="st5" d="M61.4,13.6C61,13.8,60.5,14,60,14c-0.5,0-1-0.1-1.4-0.4c-0.4-0.3-0.8-0.6-1-1c-0.2-0.4-0.4-0.9-0.4-1.4
		c0-0.5,0.1-1,0.4-1.4c0.2-0.4,0.6-0.8,1-1c0.4-0.3,0.9-0.4,1.4-0.4c0.5,0,1,0.1,1.4,0.4c0.4,0.3,0.8,0.6,1,1
		c0.2,0.4,0.4,0.9,0.4,1.4c0,0.5-0.1,1-0.4,1.4C62.2,13,61.8,13.3,61.4,13.6z M58.9,12.9c0.3,0.2,0.6,0.3,1,0.3c0.4,0,0.7-0.1,1-0.3
		s0.5-0.4,0.7-0.7c0.2-0.3,0.3-0.7,0.3-1.1c0-0.4-0.1-0.8-0.3-1.1c-0.2-0.3-0.4-0.6-0.7-0.7S60.3,9,60,9c-0.4,0-0.7,0.1-1,0.3
		s-0.5,0.4-0.7,0.7C58,10.4,58,10.7,58,11.1c0,0.4,0.1,0.8,0.3,1.1C58.4,12.5,58.6,12.7,58.9,12.9z M58.8,7.8l0.8-0.9h0.7l0.8,0.9v0
		h-0.8L60,7.4h-0.1l-0.4,0.5L58.8,7.8L58.8,7.8z M59.9,15.4c-0.1,0-0.2,0-0.3-0.1c-0.1-0.1-0.1-0.2-0.1-0.3c0-0.1,0-0.3,0.1-0.3
		c0.1-0.1,0.2-0.1,0.3-0.1c0.1,0,0.3,0,0.4,0.1c0.1,0.1,0.1,0.2,0.1,0.3c0,0.1,0,0.3-0.1,0.4C60.2,15.4,60.1,15.4,59.9,15.4z"/>
	<path class="st5" d="M63.8,8.4h0.8v5.5h-0.8V8.4z"/>
	<path class="st5" d="M67.6,8.4h1.8c0.6,0,1.1,0.1,1.5,0.3c0.4,0.2,0.7,0.6,1,1c0.2,0.4,0.3,0.9,0.3,1.4c0,0.5-0.1,1-0.3,1.4
		c-0.2,0.4-0.6,0.7-1,1c-0.4,0.2-0.9,0.3-1.5,0.3h-1.8V8.4z M69.4,13.1c0.6,0,1.1-0.2,1.5-0.5s0.5-0.8,0.5-1.4
		c0-0.6-0.2-1.1-0.5-1.4S70,9.2,69.4,9.2h-0.9v3.9H69.4z"/>
	<path class="st5" d="M75.1,14c-0.4,0-0.8-0.1-1.1-0.3c-0.3-0.2-0.6-0.4-0.7-0.8c-0.2-0.3-0.3-0.7-0.3-1.2V8.4h0.8v3.4
		c0,0.4,0.1,0.7,0.3,1c0.2,0.3,0.5,0.4,0.9,0.4c0.4,0,0.7-0.1,0.9-0.4c0.2-0.3,0.3-0.6,0.3-1V8.4h0.8v3.4c0,0.4-0.1,0.8-0.3,1.2
		c-0.2,0.3-0.4,0.6-0.7,0.8C75.9,13.9,75.5,14,75.1,14z"/>
	<path class="st5" d="M78.3,8.4h1l2.5,4h0l0-1.1v-3h0.8v5.5h-0.9l-2.6-4.2h0l0,1.1v3.2h-0.8V8.4z"/>
	<path class="st5" d="M86.4,14c-0.5,0-1-0.1-1.4-0.4c-0.4-0.3-0.8-0.6-1-1c-0.3-0.4-0.4-0.9-0.4-1.5c0-0.5,0.1-1,0.4-1.5
		c0.3-0.4,0.6-0.8,1-1c0.4-0.3,0.9-0.4,1.4-0.4c0.4,0,0.8,0.1,1.2,0.2s0.7,0.4,0.9,0.6l-0.6,0.6C87.5,9.2,87,9,86.4,9
		c-0.4,0-0.7,0.1-1,0.3c-0.3,0.2-0.6,0.4-0.7,0.7c-0.2,0.3-0.3,0.7-0.3,1.1c0,0.4,0.1,0.8,0.3,1.1c0.2,0.3,0.4,0.6,0.7,0.7
		c0.3,0.2,0.6,0.3,1,0.3c0.6,0,1-0.2,1.4-0.5c0.1-0.1,0.2-0.3,0.3-0.4c0.1-0.2,0.1-0.4,0.2-0.6h-1.9v-0.7H89c0,0.2,0,0.3,0,0.4
		c0,0.3-0.1,0.7-0.2,1c-0.1,0.3-0.3,0.6-0.5,0.8c-0.2,0.3-0.5,0.5-0.9,0.6C87.2,13.9,86.8,14,86.4,14z"/>
	<path class="st5" d="M92.9,9.2h-1.5V8.4h3.9v0.8h-1.5v4.7h-0.8V9.2z"/>
	<path class="st5" d="M96.1,8.4h1.9c0.3,0,0.6,0.1,0.9,0.2c0.3,0.1,0.5,0.3,0.6,0.6c0.2,0.3,0.2,0.5,0.2,0.9c0,0.4-0.1,0.7-0.4,1
		c-0.2,0.3-0.5,0.5-0.9,0.6l0,0l1.5,2.2v0h-1l-1.5-2.2H97v2.2h-0.8V8.4z M98,10.9c0.3,0,0.5-0.1,0.7-0.3c0.2-0.2,0.3-0.4,0.3-0.6
		c0-0.2-0.1-0.4-0.2-0.6c-0.2-0.2-0.4-0.3-0.7-0.3H97v1.8H98z"/>
	<path class="st5" d="M100.8,8.4h3.3v0.8h-2.5v1.5h2.2v0.8h-2.2v1.5h2.5v0.8h-3.3V8.4z M101.3,7.8l0.8-0.9h0.7l0.8,0.9v0h-0.8
		l-0.4-0.5h-0.1l-0.4,0.5L101.3,7.8L101.3,7.8z"/>
	<path class="st5" d="M105.2,8.4h1l2.5,4h0l0-1.1v-3h0.8v5.5h-0.9L106,9.6h0l0,1.1v3.2h-0.8V8.4z"/>
</g>
</svg>
