<?xml version="1.0" encoding="utf-8"?>
<!-- Generator: Adobe Illustrator 23.0.0, SVG Export Plug-In . SVG Version: 6.00 Build 0)  -->
<svg version="1.1" id="Shape_logo" xmlns="http://www.w3.org/2000/svg" xmlns:xlink="http://www.w3.org/1999/xlink" x="0px" y="0px"
	 viewBox="0 0 56.4 57.8" style="enable-background:new 0 0 56.4 57.8;" xml:space="preserve">
<style type="text/css">
	.st0{clip-path:url(#SVGID_2_);fill:url(#SVGID_3_);}
	.st1{fill:#0E67AA;}
	.st2{fill:#12CC3A;}
</style>
<g>
	<g>
		<defs>
			<path id="SVGID_1_" d="M25.6,21.5H4.5L14,35.4c20.7-9.2,38-12.7,38-12.7S20.7,33.2,0.8,53.6L19.9,44l9.6,12.4l5-21.5l21.9-13.3
				H37.7l3.9-20.3L25.6,21.5z"/>
		</defs>
		<clipPath id="SVGID_2_">
			<use xlink:href="#SVGID_1_"  style="overflow:visible;"/>
		</clipPath>
		
			<linearGradient id="SVGID_3_" gradientUnits="userSpaceOnUse" x1="-617.4337" y1="-63.7296" x2="-617.1822" y2="-63.7296" gradientTransform="matrix(130.7813 -226.5198 226.5198 130.7813 95195.6484 -131466.8438)">
			<stop  offset="0" style="stop-color:#00B3FF"/>
			<stop  offset="0.2119" style="stop-color:#00C1C9"/>
			<stop  offset="0.5965" style="stop-color:#00DA6D"/>
			<stop  offset="0.8663" style="stop-color:#00EA33"/>
			<stop  offset="0.995" style="stop-color:#00F01C"/>
			<stop  offset="1" style="stop-color:#00F01C"/>
		</linearGradient>
		<polygon class="st0" points="-23.1,42.6 14.7,-22.7 80.1,15.1 42.4,80.4 		"/>
	</g>
</g>
<path class="st1" d="M111.7-42.2l2.2-2.3c1.2,1.1,2.5,1.7,3.8,1.7c0.8,0,1.4-0.4,1.4-0.9s-0.3-0.7-2.1-1.4c-2-0.7-3.2-1.6-3.2-3.4
	c0-2.5,2.2-4.2,5.3-4.2c2.2,0,3.9,0.7,5.1,1.9l-2.1,2.2c-0.9-0.8-2-1.4-3.3-1.4c-0.8,0-1.4,0.4-1.4,0.9s0.4,0.7,2.1,1.4
	c1.9,0.7,3.2,1.6,3.2,3.5c0,2.6-2.2,4.3-5.3,4.3C115.1-40,113.1-40.8,111.7-42.2"/>
<polygon class="st1" points="128.8,-49.6 125.1,-49.6 125.9,-52.6 136.8,-52.6 136,-49.6 132.3,-49.6 129.8,-40.2 126.3,-40.2 "/>
<path class="st1" d="M144.4-52.7H141l-8.7,12.5h3.8l1.5-2.2h4.8l0.3,2.2h3.6L144.4-52.7z M139.3-45.1l2.3-3.6l0.4,3.6H139.3z"/>
<path class="st1" d="M160.5-48.8c0-1-0.3-1.9-1-2.5c-0.8-0.9-2.1-1.3-4.2-1.3h-4.7l-3.3,12.5h3.4l1-3.8h1.5l1.7,3.8h3.8l-1.9-4.2
	C159.4-45.1,160.5-46.7,160.5-48.8 M154.4-46.7h-2l0.8-3h1.9c0.7,0,1.2,0.1,1.5,0.4c0.2,0.2,0.3,0.5,0.3,0.8
	C157-47.3,156-46.7,154.4-46.7"/>
<polygon class="st2" points="169.2,-49.6 165.5,-49.6 166.3,-52.6 177.2,-52.6 176.4,-49.6 172.7,-49.6 170.1,-40.2 166.7,-40.2 "/>
<path class="st2" d="M183.8-52.9c-4.3,0-7.4,3.5-7.4,7.3c0,3.2,2.4,5.6,5.9,5.6c4.3,0,7.4-3.5,7.4-7.3
	C189.8-50.5,187.4-52.9,183.8-52.9 M182.6-43c-1.8,0-2.7-1.2-2.7-2.8c0-1.9,1.4-4,3.6-4c1.8,0,2.7,1.2,2.7,2.8
	C186.2-45.2,184.8-43,182.6-43"/>
<path class="st2" d="M202-51c-0.9-0.9-2.5-1.6-4.9-1.6h-4l-3.4,12.4h5c2.9,0,5-0.8,6.5-2.3c1.4-1.4,2-3,2-4.9
	C203.3-48.9,202.9-50.1,202-51 M198.7-44.5c-0.8,0.8-2.1,1.3-3.6,1.3H194l1.7-6.4h1c1.2,0,2,0.3,2.4,0.8c0.4,0.4,0.6,0.9,0.6,1.7
	C199.8-46.1,199.4-45.2,198.7-44.5"/>
<path class="st2" d="M214.2-52.7h-3.4l-8.7,12.5h3.8l1.5-2.2h4.8l0.3,2.2h3.6L214.2-52.7z M209.2-45.1l2.3-3.6l0.4,3.6H209.2z"/>
<polygon class="st2" points="219.6,-45 217.1,-52.6 220.8,-52.6 222.1,-48 225.8,-52.6 229.9,-52.6 223,-44.6 221.8,-40.2 
	218.3,-40.2 "/>
<path class="st1" d="M111.7-34.1l0.5-0.4c0.3,0.3,0.6,0.5,1.1,0.5c0.4,0,0.7-0.2,0.7-0.5c0-0.2-0.2-0.3-0.7-0.6c-0.6-0.2-1-0.5-1-1
	c0-0.7,0.6-1.2,1.4-1.2c0.6,0,1.1,0.2,1.4,0.6l-0.4,0.5c-0.3-0.3-0.6-0.4-1-0.4s-0.7,0.2-0.7,0.5c0,0.2,0.2,0.4,0.7,0.6
	c0.6,0.2,0.9,0.5,0.9,1c0,0.7-0.7,1.2-1.4,1.2C112.6-33.4,112.1-33.7,111.7-34.1 M117.4-36.6h-1.2l0.2-0.6h3l-0.1,0.6h-1.2l-0.8,3.1
	h-0.7L117.4-36.6z M121.6-37.2h0.6l0.6,3.7h-0.7l-0.1-0.9h-1.8l-0.6,0.9h-0.7L121.6-37.2z M121.9-34.9l-0.2-1.5l-1,1.5H121.9z
	 M124.9-37.2h1.3c0.5,0,0.9,0.1,1.1,0.4c0.2,0.2,0.3,0.4,0.3,0.7s-0.1,0.6-0.3,0.8c-0.2,0.2-0.5,0.4-0.9,0.4l0.7,1.4h-0.7l-0.7-1.3
	h-0.8l-0.3,1.3h-0.7L124.9-37.2z M125.9-35.3c0.4,0,0.7-0.1,0.9-0.3c0.1-0.1,0.2-0.3,0.2-0.4c0-0.1,0-0.2-0.1-0.3
	c-0.2-0.2-0.4-0.3-0.7-0.3h-0.8l-0.3,1.2L125.9-35.3L125.9-35.3z M130.8-35c0-1.2,1-2.3,2.2-2.3c0.7,0,1.2,0.3,1.4,0.8l-0.5,0.4
	c-0.2-0.3-0.5-0.6-1-0.6c-0.8,0-1.5,0.8-1.5,1.6c0,0.6,0.4,1,1,1c0.4,0,0.7-0.2,1-0.4l0.4,0.4c-0.4,0.3-0.8,0.6-1.4,0.6
	C131.5-33.4,130.8-34,130.8-35 M136-37.2h0.7l-0.5,1.6h1.7l0.4-1.5h0.7l-1,3.7h-0.7l0.4-1.6H136l-0.4,1.6h-0.7L136-37.2z
	 M141.8-37.2h0.6l0.6,3.7h-0.7l-0.1-0.9h-1.8l-0.6,0.9h-0.7L141.8-37.2z M142.2-34.9l-0.2-1.5l-1,1.5H142.2z M145.2-37.2h0.6
	l1.3,2.6l0.7-2.6h0.6l-1,3.7h-0.5l-1.3-2.7l-0.7,2.7h-0.6L145.2-37.2z M149.9-37.2h0.6l1.3,2.6l0.7-2.6h0.6l-1,3.7h-0.5l-1.3-2.7
	l-0.7,2.7H149L149.9-37.2z M154.7-37.2h2.7l-0.2,0.6h-2.1l-0.3,1h1.8l-0.2,0.6h-1.8l-0.3,1h2.1l-0.2,0.6h-2.5L154.7-37.2z
	 M158.8-37.2h0.7l-0.8,3.1h1.9l-0.2,0.6h-2.6L158.8-37.2z"/>
</svg>
