<?xml version="1.0" encoding="utf-8"?>
<!-- Generator: Adobe Illustrator 23.0.0, SVG Export Plug-In . SVG Version: 6.00 Build 0)  -->
<svg version="1.1" id="Shape_logo" xmlns="http://www.w3.org/2000/svg" xmlns:xlink="http://www.w3.org/1999/xlink" x="0px" y="0px"
	 viewBox="0 0 242.9 81.3" style="enable-background:new 0 0 242.9 81.3;" xml:space="preserve">
<style type="text/css">
	.st0{fill-rule:evenodd;clip-rule:evenodd;fill:#FFFFFF;}
	.st1{fill-rule:evenodd;clip-rule:evenodd;fill:#2163E8;}
	.st2{opacity:0.8;fill-rule:evenodd;clip-rule:evenodd;fill:#FFFFFF;enable-background:new    ;}
	.st3{fill:#FFFFFF;}
	.st4{clip-path:url(#SVGID_2_);fill:url(#SVGID_3_);}
	.st5{fill:#0E67AA;}
	.st6{fill:#12CC3A;}
</style>
<path id="Shape" class="st0" d="M237.8-100.2c-1.2-1.6-1.8-3.5-1.6-5.5c-0.1-1.9,0.5-3.8,1.7-5.3c1-1.1,2.5-1.7,4-1.8
	c1.6,0,3,0.7,4,1.9c1.2,1.6,1.7,3.5,1.6,5.4c0.1,1.8-0.5,3.6-1.6,5.1c-0.9,1.2-2.4,2-4,2C240.3-98.3,238.8-99,237.8-100.2z
	 M230.6-126.2V-94h5.5v-3.6c1.4,2.5,4.1,4,7,3.9c2.8,0.1,5.5-1.2,7.2-3.5c1.8-2.4,2.8-5.4,2.7-8.4c0-3.6-0.9-6.5-2.8-8.7
	c-1.8-2.1-4.4-3.3-7.1-3.2c-2.8-0.1-5.5,1.4-6.9,3.8v-12.6H230.6L230.6-126.2z M263.4-94v-32.2h-5.5V-94H263.4L263.4-94z M287.7-97
	c2-2.4,3.1-5.5,2.9-8.6c0.1-3.1-0.9-6.1-2.9-8.5c-1.9-2.2-4.7-3.4-8.3-3.4c-3.1-0.1-6,1.1-8.1,3.4c-2.1,2.4-3.2,5.5-3.1,8.7
	c-0.1,3.1,0.9,6.1,2.9,8.4C275.9-92.5,283.1-92.5,287.7-97L287.7-97z M283.6-110.9c0.9,1.7,1.4,3.5,1.3,5.4c0.1,1.9-0.4,3.7-1.4,5.3
	c-1.5,2.2-4.6,2.8-6.8,1.2c-0.5-0.3-0.9-0.8-1.3-1.3c-1-1.6-1.5-3.5-1.4-5.3c-0.1-1.9,0.4-3.8,1.4-5.4c0.8-1.4,2.4-2.2,4-2.1
	C281.1-113.1,282.7-112.3,283.6-110.9L283.6-110.9z M301.4-100.9c-1-1.4-1.5-3.2-1.4-4.9c-0.1-1.8,0.4-3.5,1.4-5
	c0.9-1.2,2.3-1.9,3.7-1.8c1.4,0,2.8,0.6,3.7,1.7c1,1.2,1.5,3,1.5,5.4c0.1,1.7-0.5,3.3-1.5,4.6c-0.9,1.1-2.3,1.8-3.7,1.8
	C303.6-99.1,302.2-99.8,301.4-100.9L301.4-100.9z M310.2-113.8c-1.3-2.3-3.8-3.7-6.4-3.6c-2.7-0.1-5.3,1.1-6.9,3.3
	c-1.8,2.4-2.7,5.3-2.6,8.3c0,3.6,0.9,6.4,2.8,8.3c1.7,1.8,4.1,2.9,6.6,2.9c2.7,0.2,5.2-1.1,6.6-3.4v2c0,4-2.1,6-6.3,6
	c-2.6,0.1-5.2-0.7-7.4-2.2v5.6c2.5,1.1,5.2,1.7,8,1.6c2.9,0.1,5.8-0.9,8-2.8c2.1-1.8,3.2-4.6,3.2-8.2v-21h-5.5L310.2-113.8
	L310.2-113.8z M320.7-117.1v4.4H331L320.3-98v4.1h17.6v-4.4h-11.4l10.8-14.9v-3.8H320.7L320.7-117.1z M348.4-94v-23.1H343V-94H348.4
	z M343.4-121.6c1.3,1.3,3.4,1.3,4.7,0c0.6-0.6,1-1.5,1-2.4c0-1.8-1.4-3.3-3.2-3.3s-3.3,1.4-3.3,3.2c0,0,0,0.1,0,0.1
	C342.4-123.1,342.7-122.3,343.4-121.6L343.4-121.6z M354.6-117.1V-94h5.5v-12.4c-0.1-1.7,0.4-3.4,1.5-4.8c0.9-1.1,2.2-1.7,3.6-1.7
	c1.1-0.1,2.2,0.4,3,1.2c0.8,1,1.2,2.2,1.1,3.4V-94h5.5v-15.4c0.1-2.2-0.6-4.3-2-5.9c-1.4-1.4-3.4-2.2-5.5-2.1
	c-3.4,0-5.8,1.4-7.1,4.2v-4L354.6-117.1L354.6-117.1z M384.5-107.4c0.2-1.6,0.8-3,1.8-4.2c0.9-0.9,2.1-1.4,3.4-1.4
	c1.2-0.1,2.4,0.4,3.3,1.3c0.8,1,1.2,2.3,1.2,3.6v0.7H384.5L384.5-107.4z M391.8-98.2c-1.7,0.1-3.3-0.4-4.7-1.3
	c-1.3-0.9-2.2-2.3-2.5-3.8h14.5c0.2-1.1,0.3-2.2,0.3-3.3c0-3.5-0.9-6.2-2.6-8c-1.9-1.9-4.5-2.9-7.2-2.7c-2.8-0.1-5.6,1.1-7.5,3.1
	c-2,2.1-3,5-3,8.7c-0.4,6.1,4.3,11.4,10.5,11.8c0.5,0,1,0,1.4,0c2.4,0.1,4.8-0.4,7-1.5v-4.7C396.2-98.7,394-98.1,391.8-98.2
	L391.8-98.2L391.8-98.2z"/>
<g id="logo_icon">
	<path class="st1" d="M16.3-68.5l-0.4,0c-2.3,0-4.7-0.1-7.1-0.1c-2.8,0.1-5.3-1.8-6-4.5c-0.1-0.4-0.1-0.9-0.1-1.3
		c0-10.2,0-20.6,0.1-31.3c-0.1-2.4,1.5-4.6,3.8-5.3c0.8-0.3,1.7-0.4,2.6-0.2c15.9,1.7,30.7,3.4,44.6,4.9c2.5,0.3,4.4,2.3,4.7,4.8
		c0.1,0.4,0.1,0.9,0,1.3c-0.7,9.4-1.3,18.6-1.9,27.5c-0.1,2-1.3,3.8-3.2,4.5c-0.7,0.3-1.4,0.4-2.2,0.4c-7.7-0.1-15.7-0.3-24-0.5
		c-0.2,0-0.5,0.1-0.6,0.2c-2.9,2.9-5.9,5.8-8.8,8.8c-0.3,0.4-0.9,0.5-1.4,0.2c-0.1-0.1-0.2-0.2-0.3-0.3c-0.1-0.2-0.1-0.4-0.1-0.6
		c0-2.7,0.1-5.4,0.2-8.1C16.3-68.2,16.3-68.3,16.3-68.5z"/>
	<path id="_" class="st2" d="M18.9-86.7c-0.1,4.2,1.7,6.4,5.3,6.6s5.4-1.5,5.6-4.9c0.1-3.4-1.5-5.2-4.8-5.4c0.6-1.9,1.9-3.5,3.7-4.4
		l0.1-3.9C22.4-97.4,19.1-93.4,18.9-86.7L18.9-86.7L18.9-86.7z M43.8-91.3c0.2-4.1-1.4-6.3-4.8-6.6c-3.5-0.3-5.4,1.3-5.5,4.9
		c-0.1,3.4,1.4,5.2,4.6,5.4c-0.6,1.8-1.9,3.4-3.6,4.2l-0.2,3.7C40.3-81.2,43.5-85,43.8-91.3L43.8-91.3L43.8-91.3z"/>
</g>
<g>
	<path class="st3" d="M66.4-76.8l3.6-4.3c2.1,1.8,4.3,2.6,6.3,2.6c0.8,0,1.4-0.3,1.4-0.8c0-0.6-0.3-0.8-3.1-1.8
		c-3.5-1.3-5.1-2.5-5.1-5.3c0-3.6,3.3-6.5,8.4-6.5c3.3,0,6.3,1.1,8.3,2.8l-3.6,4.3c-1.4-1.1-3.4-2.1-5.4-2.1c-0.8,0-1.4,0.2-1.4,0.7
		c0,0.5,0.4,0.7,3,1.6C82-84.3,84-83,84-80.1c0,3.8-3.1,6.7-8.5,6.7C71.9-73.4,68.6-74.8,66.4-76.8z"/>
	<path class="st3" d="M92.2-87.2h-5.5l1.4-5.3h17.2l-1.4,5.3h-5.5l-3.6,13.4h-6.2L92.2-87.2z"/>
	<path class="st3" d="M110.2-92.6h6.2l2.8,18.8h-6.6l-0.3-2.5h-6.5l-1.6,2.5h-6.8L110.2-92.6z M111.9-80.7l-0.5-4.5l-2.9,4.5H111.9z
		"/>
	<path class="st3" d="M124.7-92.5h7.3c3.4,0,5.6,0.7,6.9,2c1,1,1.5,2.4,1.5,3.9c0,2.9-1.5,5.4-5.2,6.6l2.6,6.2H131l-2.1-5.3h-1.5
		l-1.4,5.3h-6.2L124.7-92.5z M130.8-83.6c2.1,0,3.2-1,3.2-2.1c0-0.4-0.1-0.7-0.4-1c-0.3-0.3-1-0.5-1.8-0.5h-2.2l-1,3.7H130.8z"/>
	<path class="st3" d="M153.9-87.2h-5.5l1.4-5.3H167l-1.4,5.3h-5.5l-3.6,13.4h-6.2L153.9-87.2z"/>
	<path class="st3" d="M165.3-81.9c0-5.8,4.7-11,11-11c5.5,0,9.3,3.7,9.3,8.5c0,5.8-4.7,11-11,11C169.1-73.4,165.3-77.1,165.3-81.9z
		 M179.3-83.8c0-2-1.2-3.5-3.4-3.5c-2.6,0-4.3,2.6-4.3,4.9c0,2,1.2,3.5,3.4,3.5C177.6-78.9,179.3-81.5,179.3-83.8z"/>
	<path class="st3" d="M189.6-92.5h6.6c3.6,0,5.9,1,7.3,2.4c1.4,1.4,2,3.2,2,5.5c0,2.8-1,5.3-3.1,7.4c-2.2,2.2-5.4,3.4-9.8,3.4h-8.1
		L189.6-92.5z M193.4-79.2c1.9,0,3.5-0.6,4.5-1.5c0.8-0.8,1.3-2,1.3-3.2c0-1-0.3-1.7-0.8-2.2c-0.6-0.6-1.5-0.9-3-0.9h-1l-2.1,7.8
		H193.4z"/>
	<path class="st3" d="M215.9-92.6h6.2l2.8,18.8h-6.6l-0.3-2.5h-6.5l-1.6,2.5H203L215.9-92.6z M217.6-80.7l-0.5-4.5l-2.9,4.5H217.6z"
		/>
	<path class="st3" d="M229.3-80.9l-3.7-11.6h6.6l1.5,6.2l4.9-6.2h7.4l-10.6,12.3l-1.7,6.4h-6.2L229.3-80.9z"/>
</g>
<g>
	<defs>
		<path id="SVGID_1_" d="M39.3,29.4H8.7l13.7,20.2c29.9-13.5,55-18.4,55-18.4S32.1,46.3,3.2,76L31,61.9l13.8,18L52,48.8l31.7-19.3
			H56.6L62.4,0L39.3,29.4z"/>
	</defs>
	<clipPath id="SVGID_2_">
		<use xlink:href="#SVGID_1_"  style="overflow:visible;"/>
	</clipPath>
	
		<linearGradient id="SVGID_3_" gradientUnits="userSpaceOnUse" x1="-357.3404" y1="535.457" x2="-356.9757" y2="535.457" gradientTransform="matrix(130.7813 -226.5198 -226.5198 -130.7813 168042.875 -10832.5186)">
		<stop  offset="0" style="stop-color:#00B3FF"/>
		<stop  offset="0.2119" style="stop-color:#00C1C9"/>
		<stop  offset="0.5965" style="stop-color:#00DA6D"/>
		<stop  offset="0.8663" style="stop-color:#00EA33"/>
		<stop  offset="0.995" style="stop-color:#00F01C"/>
		<stop  offset="1" style="stop-color:#00F01C"/>
	</linearGradient>
	<polygon class="st4" points="-31.4,59.9 23.4,-34.9 118.3,20 63.6,114.8 	"/>
</g>
<path class="st5" d="M64,59.3l3.4-3.5c1.8,1.7,3.8,2.5,5.8,2.5c1.3,0,2.1-0.5,2.1-1.4c0-0.7-0.5-1.1-3.1-2.1c-3-1.1-4.9-2.4-4.9-5.2
	c0-3.8,3.4-6.4,8-6.4c3.3,0,5.9,1.1,7.7,2.8l-3.2,3.6c-1.4-1.3-3-2.1-5-2.1c-1.3,0-2,0.6-2,1.3c0,0.7,0.6,1,3.1,2
	c2.9,1.1,4.9,2.4,4.9,5.2c0,3.9-3.3,6.5-8,6.5C69,62.7,66,61.5,64,59.3"/>
<polygon class="st5" points="89.8,48.2 84.1,48.2 85.4,43.6 101.8,43.6 100.6,48.2 95,48.2 91.2,62.4 85.9,62.4 "/>
<path class="st5" d="M113.2,43.5h-5.1L95,62.4h5.7L103,59h7.2l0.5,3.4h5.5L113.2,43.5z M105.6,55l3.5-5.4l0.7,5.4H105.6z"/>
<path class="st5" d="M137.5,49.4c0-1.5-0.5-2.8-1.4-3.8c-1.3-1.3-3.3-2-6.5-2h-7.1l-5,18.8h5.2l1.5-5.7h2.3l2.5,5.7h5.7l-2.9-6.3
	C135.7,55,137.5,52.6,137.5,49.4 M128.3,52.6h-3l1.2-4.5h2.8c1.1,0,1.9,0.2,2.3,0.6c0.3,0.3,0.5,0.8,0.5,1.3
	C132.2,51.6,130.6,52.6,128.3,52.6"/>
<polygon class="st6" points="150.6,48.2 145,48.2 146.2,43.6 162.6,43.6 161.4,48.2 155.8,48.2 152,62.4 146.8,62.4 "/>
<path class="st6" d="M172.6,43.3c-6.5,0-11.2,5.3-11.2,11c0,4.8,3.6,8.4,9,8.4c6.5,0,11.2-5.3,11.2-11
	C181.5,46.9,177.9,43.3,172.6,43.3 M170.8,58.1c-2.7,0-4.1-1.8-4.1-4.2c0-2.8,2.1-6,5.4-6c2.7,0,4.1,1.8,4.1,4.2
	C176.2,54.9,174.1,58.1,170.8,58.1"/>
<path class="st6" d="M199.9,46c-1.4-1.4-3.7-2.4-7.3-2.4h-6.1l-5,18.8h7.6c4.4,0,7.6-1.2,9.8-3.5c2-2,3.1-4.6,3.1-7.4
	C201.9,49.2,201.3,47.4,199.9,46 M195,55.9c-1.3,1.3-3.2,1.9-5.4,1.9h-1.7l2.6-9.5h1.5c1.8,0,2.9,0.4,3.7,1.2
	c0.6,0.6,0.9,1.4,0.9,2.6C196.6,53.5,196,54.9,195,55.9"/>
<path class="st6" d="M218.4,43.5h-5.1l-13.1,18.9h5.7l2.3-3.4h7.2l0.5,3.4h5.5L218.4,43.5z M210.7,55l3.5-5.4l0.7,5.4H210.7z"/>
<polygon class="st6" points="226.5,55.1 222.7,43.6 228.3,43.6 230.2,50.7 235.8,43.6 242.1,43.6 231.6,55.7 229.8,62.4 224.5,62.4 
	"/>
<path class="st5" d="M64,71.5l0.7-0.6c0.5,0.5,1,0.8,1.7,0.8c0.6,0,1.1-0.3,1.1-0.8c0-0.3-0.2-0.5-1-0.8c-0.9-0.3-1.4-0.7-1.4-1.5
	c0-1.1,1-1.8,2.1-1.8c0.9,0,1.6,0.3,2,0.8l-0.7,0.7c-0.4-0.4-0.9-0.6-1.4-0.6c-0.7,0-1,0.4-1,0.7c0,0.4,0.3,0.5,1.1,0.9
	c0.9,0.3,1.4,0.7,1.4,1.5c0,1.1-1,1.8-2.2,1.8C65.3,72.6,64.5,72.2,64,71.5 M72.6,67.8h-1.8l0.2-0.9h4.5l-0.2,0.9h-1.8l-1.3,4.7h-1
	L72.6,67.8z M78.8,66.9h0.9l0.9,5.6h-1l-0.2-1.3h-2.6l-0.9,1.3h-1.1L78.8,66.9z M79.4,70.3L79,68l-1.6,2.3H79.4z M83.9,66.9h2
	c0.8,0,1.3,0.2,1.7,0.5c0.3,0.3,0.4,0.6,0.4,1.1c0,0.5-0.2,1-0.5,1.3c-0.3,0.3-0.8,0.5-1.4,0.7l1,2H86l-1-1.9h-1.2l-0.5,1.9h-1
	L83.9,66.9z M85.4,69.7c0.6,0,1.1-0.1,1.3-0.4c0.2-0.2,0.3-0.4,0.3-0.7c0-0.2-0.1-0.4-0.2-0.5c-0.2-0.2-0.5-0.3-0.9-0.3h-1.2
	l-0.5,1.9H85.4z M92.8,70.2c0-1.8,1.5-3.4,3.4-3.4c1.1,0,1.8,0.5,2.2,1.2l-0.8,0.5c-0.3-0.5-0.7-0.8-1.5-0.8c-1.2,0-2.2,1.1-2.2,2.5
	c0,0.9,0.6,1.5,1.5,1.5c0.6,0,1-0.3,1.5-0.6l0.6,0.7c-0.5,0.5-1.2,0.9-2.1,0.9C93.8,72.6,92.8,71.7,92.8,70.2 M100.5,66.9h1
	l-0.6,2.3h2.6l0.6-2.3h1l-1.5,5.6h-1l0.6-2.3h-2.6l-0.6,2.3h-1L100.5,66.9z M109.3,66.9h0.9l0.9,5.6h-1l-0.2-1.3h-2.6l-0.9,1.3h-1.1
	L109.3,66.9z M109.9,70.3l-0.4-2.3l-1.6,2.3H109.9z M114.4,66.9h0.9l1.9,3.9l1.1-3.9h1l-1.5,5.6h-0.8l-2-4.1l-1.1,4.1h-1L114.4,66.9
	z M121.6,66.9h0.9l1.9,3.9l1.1-3.9h1l-1.5,5.6h-0.8l-2-4.1l-1.1,4.1h-1L121.6,66.9z M128.7,66.9h4.1l-0.2,0.9h-3.1l-0.4,1.5h2.8
	l-0.2,0.9h-2.8l-0.4,1.5h3.2l-0.2,0.9h-4.1L128.7,66.9z M134.9,66.9h1l-1.3,4.7h2.9l-0.2,0.9h-3.9L134.9,66.9z"/>
</svg>
